<?xml version="1.0" encoding="utf-8"?>
<!-- Generator: Adobe Illustrator 15.1.0, SVG Export Plug-In  -->
<!DOCTYPE svg PUBLIC "-//W3C//DTD SVG 1.1//EN" "http://www.w3.org/Graphics/SVG/1.1/DTD/svg11.dtd" [
	<!ENTITY ns_flows "http://ns.adobe.com/Flows/1.0/">
]>
<svg version="1.1"
	 xmlns="http://www.w3.org/2000/svg" xmlns:xlink="http://www.w3.org/1999/xlink" xmlns:a="http://ns.adobe.com/AdobeSVGViewerExtensions/3.0/"
	 x="0px" y="0px" width="31px" height="32px" viewBox="-2.306 -2.232 31 32" enable-background="new -2.306 -2.232 31 32"
	 xml:space="preserve">
<defs>
</defs>
<path fill="#6F868D" d="M21.59,19.297c-1.252,1.146-2.607,1.979-4.276,2.501l5.736,5.737l3.339-3.337L21.59,19.297z M22.11,11.056
	C22.11,5.007,17.105,0,11.056,0S0,5.007,0,11.056c0,6.05,5.006,11.056,11.056,11.056S22.11,17.105,22.11,11.056z M11.056,17.313
	c-3.441,0-6.259-2.814-6.259-6.258c0-3.441,2.817-6.258,6.259-6.258s6.258,2.816,6.258,6.258
	C17.313,14.499,14.497,17.313,11.056,17.313z"/>
</svg>
